<svg width="20" height="20" viewBox="0 0 20 20" fill="none" xmlns="http://www.w3.org/2000/svg">
<path fill-rule="evenodd" clip-rule="evenodd" d="M14.6285 4.39721C14.7931 4.10636 14.8369 3.76254 14.7504 3.43974C14.664 3.11694 14.4544 2.84097 14.1665 2.67121C14.0251 2.58781 13.8685 2.53344 13.7058 2.51129C13.5431 2.48914 13.3777 2.49965 13.2191 2.5422C13.0605 2.58475 12.912 2.6585 12.7823 2.75911C12.6526 2.85973 12.5442 2.98521 12.4635 3.12821L9.99954 7.46221L7.53554 3.12821C7.45487 2.98521 7.3465 2.85973 7.21677 2.75911C7.08704 2.6585 6.93854 2.58475 6.77997 2.5422C6.62141 2.49965 6.45594 2.48914 6.29327 2.51129C6.13059 2.53344 5.97396 2.58781 5.83254 2.67121C5.54471 2.84097 5.33503 3.11694 5.24863 3.43974C5.16223 3.76254 5.206 4.10636 5.37054 4.39721L7.83454 8.73221H2.93554C2.60501 8.74148 2.29114 8.8793 2.06063 9.11637C1.83013 9.35343 1.70117 9.67105 1.70117 10.0017C1.70117 10.3324 1.83013 10.65 2.06063 10.887C2.29114 11.1241 2.60501 11.2619 2.93554 11.2712H7.83454L5.37054 15.6052C5.206 15.8961 5.16223 16.2399 5.24863 16.5627C5.33503 16.8855 5.54471 17.1614 5.83254 17.3312C6.43054 17.6812 7.19254 17.4772 7.53554 16.8752L9.99954 12.5402L12.4635 16.8752C12.5443 17.0181 12.6527 17.1435 12.7825 17.244C12.9123 17.3445 13.0608 17.4182 13.2193 17.4606C13.3779 17.5031 13.5433 17.5135 13.706 17.4913C13.8686 17.4691 14.0252 17.4146 14.1665 17.3312C14.7645 16.9812 14.9715 16.2082 14.6285 15.6052L12.1645 11.2712H17.0635C17.4004 11.2712 17.7234 11.1374 17.9616 10.8992C18.1997 10.6611 18.3335 10.338 18.3335 10.0012C18.3335 9.66438 18.1997 9.34135 17.9616 9.10318C17.7234 8.86501 17.4004 8.73121 17.0635 8.73121H12.1645L14.6285 4.39721Z" fill="white"/>
</svg>
