<svg xmlns="http://www.w3.org/2000/svg" width="20" height="20" fill="none" class="sc-1syzb6g-0 dZGYjt" viewBox="0 0 20 20"><path fill="currentColor" d="M9.191 7.881C8.868 6.586 5.821 2.754 4.338 1c1.618 2.267 2.561 7.69 2.83 10.119C6.523 9.5 2.856 6.937 1.103 5.857l.405.405c.647.648 1.617 1.889 2.022 2.428l.809 4.453L9.596 18c.134-.54.404-1.943.404-3.238 0-1.62-.404-5.262-.809-6.881Z"/><path fill="currentColor" d="M10.074 7.709C10.427 6.446 13.747 2.71 15.363 1c-1.763 2.21-2.791 7.498-3.085 9.866.705-1.578 4.7-4.078 6.61-5.13l-.44.394c-.705.632-1.763 1.842-2.204 2.368l-.881 4.341-3.085 1.973c-.147-.526 0-2.762-.441-3.946-.557-1.497-2.204-1.578-1.763-3.157Z" opacity=".3"/></svg>