<svg width="20" height="20" viewBox="0 0 20 20" fill="none" xmlns="http://www.w3.org/2000/svg">
<path d="M9.19152 7.881C8.86852 6.586 5.82152 2.754 4.33852 1C5.95652 3.267 6.89952 8.69 7.16852 11.119C6.52352 9.5 2.85652 6.937 1.10352 5.857L1.50852 6.262C2.15552 6.91 3.12552 8.151 3.53052 8.69L4.33952 13.143L9.59652 18C9.73052 17.46 10.0005 16.057 10.0005 14.762C10.0005 13.142 9.59652 9.5 9.19152 7.881Z" fill="white"/>
<path opacity="0.3" d="M10.0741 7.709C10.4271 6.446 13.7471 2.71 15.3631 1C13.6001 3.21 12.5721 8.498 12.2781 10.866C12.9831 9.288 16.9781 6.788 18.8881 5.736L18.4481 6.13C17.7431 6.762 16.6851 7.972 16.2441 8.498L15.3631 12.839L12.2781 14.812C12.1311 14.286 12.2781 12.05 11.8371 10.866C11.2801 9.369 9.63314 9.288 10.0741 7.709Z" fill="white"/>
</svg>
