<svg xmlns="http://www.w3.org/2000/svg" width="20" height="20" fill="none" class="sc-1syzb6g-0 dZGYjt" viewBox="0 0 20 20"><path fill="currentColor" fill-rule="evenodd" d="M14.629 4.397a1.275 1.275 0 0 0-.462-1.726 1.235 1.235 0 0 0-1.703.457L10 7.462 7.536 3.128a1.235 1.235 0 0 0-1.703-.457 1.275 1.275 0 0 0-.462 1.726l2.464 4.335H2.936a1.27 1.27 0 0 0 0 2.539h4.899l-2.464 4.334a1.275 1.275 0 0 0 .462 1.726c.598.35 1.36.146 1.703-.456L10 12.54l2.464 4.335a1.235 1.235 0 0 0 1.703.456c.598-.35.805-1.123.462-1.726l-2.464-4.334h4.899a1.27 1.27 0 0 0 0-2.54h-4.899l2.464-4.334Z" clip-rule="evenodd"/></svg>