<svg width="20" height="20" viewBox="0 0 20 20" fill="none" xmlns="http://www.w3.org/2000/svg">
<path fill-rule="evenodd" clip-rule="evenodd" d="M7.425 8.089C3.885 6.276 3.19 3.273 3.285 2C2.257 3.36 2 5.398 2 6.248H3.856L2.143 6.956L2.857 8.372H4.855L3.428 9.08L4.141 9.93C4.475 9.788 5.283 9.561 5.855 9.788C6.425 10.014 6.854 10.732 6.997 11.062C6.058 11.204 5.893 11.924 5.997 12.336C6.14 12.903 6.711 13.327 7.425 13.1C8.1 12.884 8.186 12.326 8.139 12.053L7.425 8.089ZM12.575 8.089C16.115 6.276 16.81 3.274 16.715 2C17.743 3.36 18 5.398 18 6.248H16.144L17.857 6.956L17.143 8.372H15.145L16.572 9.08L15.859 9.93C15.525 9.788 14.717 9.561 14.146 9.788C13.574 10.014 13.146 10.732 13.003 11.062C13.941 11.204 14.107 11.924 14.003 12.336C13.86 12.903 13.289 13.327 12.575 13.1C11.9 12.884 11.814 12.326 11.861 12.053L12.575 8.089ZM7.853 5.539L8.995 2.991H10.994L12.136 5.54L10.423 9.504V14.035L11.279 16.585L10.423 18H9.566L8.71 16.584L9.566 14.035V9.505L7.853 5.539ZM10.423 4.124H9.566L8.996 5.257L9.995 7.805L10.994 5.257L10.423 4.124Z" fill="white"/>
</svg>
