<svg xmlns="http://www.w3.org/2000/svg" width="20" height="20" fill="none" class="sc-1syzb6g-0 dZGYjt" viewBox="0 0 20 20"><path fill="currentColor" fill-rule="evenodd" d="M7.425 8.089C3.885 6.276 3.19 3.273 3.285 2 2.257 3.36 2 5.398 2 6.248h1.856l-1.713.708.714 1.416h1.998l-1.427.708.713.85c.334-.142 1.142-.369 1.714-.142.57.226.999.944 1.142 1.274-.939.142-1.104.862-1 1.274.143.567.714.991 1.428.764.675-.216.761-.774.714-1.047l-.714-3.965Zm5.15 0c3.54-1.813 4.235-4.815 4.14-6.089C17.743 3.36 18 5.398 18 6.248h-1.856l1.713.708-.714 1.416h-1.998l1.427.708-.713.85c-.334-.142-1.142-.369-1.713-.142-.572.226-1 .944-1.143 1.274.938.142 1.104.862 1 1.274-.143.567-.714.991-1.428.764-.675-.216-.761-.774-.714-1.047l.714-3.965Zm-4.722-2.55 1.142-2.548h1.999l1.142 2.549-1.713 3.964v4.531l.856 2.55L10.423 18h-.857l-.856-1.416.856-2.549v-4.53L7.853 5.54Zm2.57-1.415h-.857l-.57 1.133.999 2.548.999-2.548-.571-1.133Z" clip-rule="evenodd"/></svg>